<svg width="11" height="19" viewBox="0 0 11 19" fill="none" xmlns="http://www.w3.org/2000/svg"> <path d="M0.0214644 18.3967C-0.0189849 16.7961 0.00837839 15.1435 0.0180073 13.5402L0.0171284 9.7177C0.0264253 6.74705 -0.00974673 3.7741 0.0111712 0.803181C0.0117181 0.725468 -0.00400434 0.0290873 0.0702144 0.0249154C0.749961 -0.0132818 1.44404 0.00379238 2.12682 0.00387246L7.95939 0.00454428C8.23533 0.00455795 10.3304 -0.0136959 10.4013 0.0266693L10.4125 0.0732611L10.4128 16.3495L10.4156 17.6759C10.4161 17.8415 10.4268 18.1852 10.4134 18.3325L10.3898 18.3771C10.2772 18.4409 9.64611 18.4046 9.49273 18.3762C9.34994 18.2477 9.26437 18.1666 9.1383 18.0229C8.89185 17.9757 8.26305 17.6382 8.01654 17.4969C7.92363 17.4437 7.8124 17.3193 7.73924 17.2353C7.43728 17.1799 6.96219 16.8931 6.75199 16.641C6.43113 16.5708 5.94402 16.3044 5.73867 16.0161L5.5241 15.9899C5.40258 15.8977 5.30531 15.7293 5.14334 15.7957C5.04881 15.8206 4.84455 16.1059 4.79205 16.1249C4.51201 16.2266 3.94715 16.5944 3.69041 16.6385C3.60144 16.7299 3.4576 16.8855 3.35516 16.9481L3.34281 16.9555C3.25516 17.0088 3.1973 17.0131 3.09666 17.0278C2.8776 17.2444 2.94764 17.1165 2.68609 17.2421C2.62742 17.2703 2.44152 17.5024 2.37143 17.5425C2.13592 17.6773 2.13736 17.5856 1.92951 17.7862L1.70771 17.8244L1.69447 17.8359C1.51619 17.9902 1.53166 17.984 1.29144 18.0252C1.16674 18.1454 1.05477 18.2699 0.92375 18.387C0.689843 18.4112 0.258867 18.407 0.0214644 18.3967ZM0.804121 1.51699L0.820058 12.9953C0.813085 13.8779 0.812382 14.7605 0.817929 15.643C0.818222 15.8731 0.809472 16.8465 0.857109 17.0008C0.934648 17.0348 1.08316 16.9866 1.15457 16.9457C1.40775 16.8008 1.68021 16.6878 1.93492 16.5487C2.05502 16.483 2.19443 16.3101 2.32008 16.2435C2.52053 16.1372 2.73094 16.0635 2.93131 15.958C3.00859 15.9176 3.19719 15.7109 3.24971 15.6874C3.52791 15.5631 4.08268 15.228 4.344 15.1761L4.35586 15.1738C4.40932 15.1167 4.59664 14.9229 4.65371 14.8791C4.83103 14.743 5.40936 14.8135 5.62561 14.8304C5.81137 14.8448 5.9734 15.0414 6.07773 15.1906C6.42262 15.2466 6.85851 15.5348 7.18033 15.6938C7.23131 15.719 7.40201 15.8935 7.48377 15.9407C7.91117 16.1876 8.16822 16.1896 8.48871 16.5923C8.73068 16.6488 8.93027 16.7609 9.15018 16.8773C9.39057 17.0046 9.34521 17.029 9.61726 17.0021C9.59045 15.6457 9.61063 14.1918 9.61287 12.8287L9.61557 2.57955L9.61338 1.45113C9.6133 1.27 9.60465 0.973964 9.62531 0.801402C8.91316 0.81781 8.15896 0.804868 7.44273 0.804982L1.77568 0.804562C1.52412 0.804591 1.05811 0.793417 0.818515 0.826353C0.822675 0.984013 0.832421 1.37592 0.804121 1.51699Z" fill="#FEFEFE"/> <path d="M10.4134 18.3325C10.3782 18.2569 10.3796 18.1736 10.3787 18.0907C10.3723 17.0392 10.3715 15.9876 10.3763 14.936L10.3763 5.38385L10.3696 1.81176L10.3742 0.781341C10.376 0.572115 10.3646 0.266533 10.4125 0.0732611L10.4128 16.3495L10.4156 17.6759C10.4161 17.8415 10.4268 18.1852 10.4134 18.3325Z" fill="#8D9097"/> <path d="M7.46664 6.58334C7.74545 6.84408 7.97756 7.06262 8.22768 7.34938C7.9148 7.70012 4.48527 11.1255 4.42228 11.1391C4.27037 11.058 3.27826 10.0818 3.08092 9.89006C2.95924 9.7668 2.41258 9.27426 2.36805 9.18192C2.38809 9.06926 3.00773 8.4244 3.11601 8.421C3.31172 8.54824 4.24674 9.46525 4.384 9.65656C4.77832 9.29533 5.15451 8.9009 5.53172 8.52117L7.46664 6.58334Z" fill="#FEFEFE"/> <path d="M0.79914 0.79491C1.19289 0.750003 1.74289 0.76422 2.14828 0.763851L7.71932 0.76391C7.9293 0.763935 9.53393 0.7403 9.62531 0.801402C8.91316 0.81781 8.15896 0.804868 7.44273 0.804982L1.77568 0.804562C1.52412 0.804591 1.05811 0.793417 0.818515 0.826353C0.822675 0.984013 0.832421 1.37592 0.804121 1.51699C0.784199 1.32586 0.805371 1.00908 0.79914 0.79491Z" fill="#696C80"/> </svg>
