<svg width="20" height="20" viewBox="0 0 20 20" fill="none" xmlns="http://www.w3.org/2000/svg">
<path d="M9.98376 3.84592C10.2381 3.70945 10.5046 3.35365 10.7282 3.16914C13.6343 0.770918 18.1933 2.23304 19.0152 5.94301C19.042 6.06426 19.1901 6.24806 19.1958 6.36533C19.2282 7.02345 19.2328 7.70367 19.1882 8.36137C19.1847 8.41271 19.1592 8.47734 19.1295 8.51207C18.9405 8.7467 18.9833 9.08207 18.889 9.35762C18.4606 10.6094 17.8389 11.741 16.9204 12.7039C16.682 12.9539 16.4526 13.2854 16.1902 13.5244C15.5913 14.0696 14.941 14.5632 14.3185 15.0815C14.1603 15.2134 13.9725 15.2999 13.8194 15.4486C13.7979 15.473 13.5603 15.6179 13.5078 15.6532L12.2119 16.5079C11.9433 16.6862 11.6586 16.9259 11.3783 17.1144C11.0865 17.3106 10.6797 17.5437 10.4282 17.77C9.86097 18.2804 9.77632 17.8553 9.26776 17.5429C7.20167 16.089 4.94774 14.7982 3.2365 12.9097C0.478909 10.002 -0.534882 5.28879 3.27245 2.74834C3.98585 2.27234 4.58788 2.23912 5.35489 2.01365C6.84495 1.90152 8.06128 2.23109 9.2555 3.14471C9.57737 3.39096 9.6212 3.6184 9.98376 3.84592ZM5.69857 2.81744C4.38358 2.89801 3.36382 3.53474 2.50601 4.50201C2.24181 4.7999 1.95747 5.3775 1.84156 5.75953C1.78859 5.93414 1.76129 6.11349 1.72066 6.29094C1.68921 6.42824 1.64297 6.56279 1.62607 6.70308C1.58197 7.06928 1.59582 7.46822 1.62005 7.83648C1.62636 7.93238 1.62596 8.0517 1.65716 8.14306C1.68679 8.22984 1.74154 8.31045 1.75984 8.40088C1.79188 8.55914 1.76847 8.73119 1.80863 8.88744C1.85262 9.05853 1.92645 9.22947 1.98837 9.39498C2.30722 10.2473 2.61915 10.7386 3.1406 11.4702C3.23476 11.6023 3.31376 11.7442 3.41694 11.87C3.76181 12.2904 4.15624 12.6429 4.54743 13.0164C4.73005 13.1907 4.90089 13.3791 5.09095 13.5453C5.52878 13.9282 6.00726 14.2393 6.47515 14.5805C6.68798 14.7358 6.90608 14.8912 7.11544 15.0506C7.23565 15.1421 7.34898 15.2462 7.47427 15.3306C7.79944 15.5495 8.14915 15.7417 8.47169 15.9646C8.76187 16.1652 9.75925 17.0078 10.0132 17.0379C10.3043 16.9042 10.4602 16.7309 10.7178 16.5657C11.0181 16.373 11.2758 16.1649 11.5587 15.9586C11.8477 15.7479 12.1953 15.5613 12.4892 15.3518C12.8192 15.1302 13.1608 14.8523 13.4858 14.6177C13.5588 14.5649 13.8592 14.3681 13.8887 14.3419C14.5802 13.8215 15.1595 13.3858 15.7522 12.7448C16.0363 12.4376 16.41 12.1546 16.6584 11.8001C16.7954 11.5466 16.8787 11.3528 17.106 11.159C17.1347 11.1345 17.2145 10.9075 17.2475 10.8661C17.5807 10.4684 17.7014 10.1074 17.8756 9.64492C18.0286 9.23855 18.1503 9.07902 18.2274 8.61201C18.341 8.02209 18.4548 7.25474 18.361 6.65515C18.2662 6.04849 17.9765 5.1514 17.6037 4.66351C16.8726 3.70644 15.8162 3.0058 14.6282 2.84072C13.4909 2.67527 12.3347 2.97164 11.4173 3.66381C11.1329 3.88039 10.769 4.18638 10.5471 4.45881C10.3208 4.73662 10.3324 4.8867 10.0306 5.12308C9.7022 4.9648 9.63239 4.69717 9.4073 4.42953C9.08526 4.04662 8.32017 3.43498 7.8805 3.20838C7.2889 2.90349 6.3565 2.76916 5.69857 2.81744Z" fill="#FDFBFE"/>
</svg>
