<svg width="11" height="19" viewBox="0 0 11 19" fill="none" xmlns="http://www.w3.org/2000/svg">
<path d="M0.316333 0.0113824C0.439673 0.00546048 0.587173 0.00391359 0.710903 0.00373195C2.95569 0.000450695 5.20149 0.00403271 7.44616 0.00322411L9.26887 0.00181789C9.54301 0.00164406 9.866 -0.00768212 10.1384 0.0176519C10.215 0.0247691 10.3285 0.184818 10.4056 0.260193C10.4435 0.478279 10.4347 0.82224 10.4341 1.05023L10.4316 2.10538L10.4329 16.6032C10.434 17.1015 10.4455 17.6411 10.4311 18.1365C10.3453 18.2199 10.2475 18.3669 10.1825 18.4072C9.86973 18.4723 9.47766 18.1516 9.2001 18.0051C8.92709 17.861 8.64178 17.6992 8.37918 17.5371C8.01126 17.3423 7.64077 17.1093 7.27163 16.9103C7.06291 16.7978 6.85473 16.623 6.64155 16.5039C6.32475 16.3269 6.0153 16.1418 5.68743 15.9842C5.45873 15.8686 5.5169 15.8311 5.24807 15.7583C4.98346 15.8425 4.82338 15.9639 4.58446 16.0924C4.0886 16.359 3.61258 16.6144 3.15475 16.9449C2.9885 17.0649 2.7178 17.1613 2.53204 17.2749C1.89944 17.6619 1.24782 18.0275 0.593716 18.3755C0.505395 18.4223 0.374575 18.4216 0.274497 18.4249C0.0839696 18.187 0.018657 18.0986 0.0121531 17.7756C0.00297337 17.32 0.00721183 16.8639 0.0077587 16.4081L0.00863757 2.66856C0.00795398 1.97829 -0.0357181 0.900181 0.0800046 0.251828C0.161059 0.155865 0.218794 0.0910894 0.316333 0.0113824ZM0.810669 0.830671C0.843501 1.20549 0.822876 1.86965 0.822817 2.26606L0.823462 16.0546C0.823735 16.3456 0.805298 17.0278 0.838442 17.2784C1.39944 17.0311 1.84413 16.7188 2.35959 16.4017C2.57985 16.2662 2.79399 16.164 3.01723 16.0417C3.23836 15.9207 3.46473 15.759 3.68575 15.6331C3.93112 15.4932 4.18491 15.369 4.43375 15.2379C4.60905 15.1455 4.77668 14.9704 4.96895 14.8957C5.09192 14.8479 5.30799 14.81 5.4295 14.8637C5.63895 14.9562 5.84039 15.1062 6.04438 15.2229C6.74149 15.6218 7.38381 16.0122 8.10042 16.3799C8.3161 16.5406 8.61329 16.734 8.84616 16.8733C9.09463 17.0219 9.34836 17.1197 9.58903 17.2998C9.64805 17.0414 9.61752 16.4059 9.61739 16.1029L9.61791 2.26825C9.61784 1.86176 9.59549 1.20594 9.62731 0.82782C9.05416 0.853833 8.3543 0.836462 7.77321 0.836302L2.02082 0.836242C1.68875 0.836384 1.11438 0.856648 0.810669 0.830671Z" fill="#FEFEFE"/>
</svg>
