<svg width="18" height="18" viewBox="0 0 18 18" fill="none" xmlns="http://www.w3.org/2000/svg">
<path d="M6.31602 0.0149834C6.97776 -0.0228897 7.61041 0.00637598 8.25301 0.160288C8.46117 0.194933 8.65701 0.228927 8.85858 0.289472C10.6131 0.816132 12.0658 2.15512 12.9255 3.75068C13.1105 4.09398 13.2676 4.59226 13.3924 4.96469C13.432 5.08303 13.4218 5.32152 13.4579 5.46162C13.5037 5.63887 13.5641 5.81129 13.6008 5.98951C13.6443 6.53228 13.633 7.13562 13.5976 7.67896C13.5921 7.76215 13.4826 8.0814 13.459 8.19262C13.4166 8.39283 13.4014 8.61267 13.3543 8.80107C13.3141 8.97373 13.1918 9.14967 13.1374 9.31277C13.0004 9.72344 12.8061 10.0807 12.5704 10.4441C12.4062 10.6974 12.1892 10.8746 12.0871 11.1755C12.0992 11.2423 12.1203 11.3205 12.1366 11.3876C12.7373 11.8719 13.3212 12.5712 13.8685 13.1154C14.4981 13.7415 15.1578 14.3299 15.7422 15.0005C15.8609 15.1367 16.058 15.2566 16.1817 15.401C16.4646 15.7314 16.9788 16.0532 17.0803 16.4911C17.0916 16.6035 16.3699 17.2191 16.2672 17.3718C16.2411 17.4107 16.1451 17.4902 16.0803 17.4902C15.7193 17.3692 14.8357 16.3229 14.516 16.015C14.2312 15.7408 13.848 15.3977 13.5777 15.1075C13.4863 15.0216 13.3866 14.9256 13.3049 14.8305C12.7276 14.1585 12.0229 13.6231 11.4304 12.964C11.3245 12.8462 11.1885 12.6709 11.0727 12.5728L11.0618 12.5636C10.9747 12.4899 10.8364 12.4414 10.7287 12.397C10.3633 12.5389 10.0227 12.82 9.66041 12.9965C8.99498 13.3207 8.166 13.4989 7.43502 13.5882C6.86711 13.6547 6.30697 13.5875 5.75729 13.5142C4.4833 13.3442 3.44279 12.7858 2.43789 12.0073C1.95473 11.6387 1.65541 11.22 1.29762 10.7481C0.54553 9.75623 0.172561 8.65617 0.0320884 7.42631C-0.0984819 6.28312 0.182288 4.92172 0.640784 3.87105C0.783577 3.54385 1.15643 3.08152 1.35301 2.76465C1.54369 2.59213 1.80022 2.15678 1.98873 2.01033C2.35397 1.72662 2.84184 1.25043 3.21145 1.01295C4.15707 0.405308 5.21164 0.134665 6.31602 0.0149834ZM6.86297 12.7795C10.1665 12.7558 12.8267 10.0609 12.8077 6.75732C12.7886 3.45371 10.0975 0.789745 6.79387 0.804198C3.48369 0.818671 0.813303 3.51627 0.832405 6.82642C0.851506 10.1366 3.55285 12.8032 6.86297 12.7795Z" fill="#455172"/>
</svg>
