<svg width="17" height="9" viewBox="0 0 17 9" fill="none" xmlns="http://www.w3.org/2000/svg">
<path d="M0.0110316 0.467283C0.00528743 0.427615 0.00166447 0.387654 0.000180095 0.347595C-0.00235506 0.270388 0.022184 0.264393 0.0542738 0.203631C0.182497 -0.0391813 0.391866 -0.0588699 0.612412 0.112732C0.877803 0.319236 1.11964 0.576814 1.36415 0.82199L2.45794 1.91943L6.22081 5.67715L7.50954 6.96914C7.72675 7.18742 7.94399 7.40541 8.16153 7.62351C8.27276 7.73506 8.41817 7.77232 8.54757 7.66187C8.78562 7.45869 8.99642 7.21925 9.21706 6.99771L10.3504 5.87383L14.7706 1.45486L15.7779 0.461151C15.8858 0.355408 16.0481 0.146463 16.169 0.0862875C16.5731 -0.114884 16.8644 0.160194 16.7519 0.577166C16.6931 0.651424 16.6344 0.754725 16.569 0.819588C15.8391 1.54394 15.1087 2.26418 14.3954 3.00607C14.3066 3.09842 14.1908 3.16832 14.0982 3.26238L10.5644 6.80359C10.0788 7.28947 9.62585 7.81127 9.10544 8.26599C8.9845 8.37166 8.87185 8.51226 8.7462 8.62676C8.56155 8.79504 8.33337 8.8014 8.11077 8.69804C7.94304 8.61135 7.84915 8.37267 7.71689 8.26314C7.31081 7.92685 6.95124 7.55074 6.58028 7.17748C6.43958 7.03592 6.31972 6.87224 6.17983 6.73234L2.72011 3.26887C2.60689 3.15473 2.45462 3.05972 2.3448 2.94644C2.07866 2.67193 1.80468 2.40345 1.53608 2.13131C1.4044 1.99791 1.28978 1.84263 1.1538 1.71256L0.36585 0.964041C0.12843 0.736814 0.104186 0.793728 0.0110316 0.467283Z" fill="#90A1B9"/>
</svg>
