<svg width="19" height="19" viewBox="0 0 19 19" fill="none" xmlns="http://www.w3.org/2000/svg">
<path d="M8.59355 0.022637C8.90821 0.00379323 9.45452 -0.0171228 9.76226 0.022637C10.2414 0.0845393 10.8848 0.180811 11.3521 0.276614C12.3126 0.473504 13.3085 0.923211 14.1538 1.4137C14.503 1.61634 14.9124 2.04437 15.258 2.27899C15.7657 2.66741 16.1508 3.12978 16.5198 3.64519C16.6694 3.83954 16.8616 4.03128 16.988 4.24138C17.5843 5.2329 18.112 6.40317 18.2324 7.56165C18.2394 7.62862 18.249 7.76819 18.303 7.8087C18.4155 7.89302 18.4242 7.92046 18.4334 8.0604C18.469 8.73163 18.45 9.40679 18.4494 10.0789C18.4513 10.1432 18.4398 10.5457 18.4101 10.5821C18.1429 10.9093 18.2314 11.3773 18.0814 11.7878C17.7007 12.8295 17.3431 13.9009 16.5736 14.7293C16.4809 14.8291 16.396 15.0224 16.299 15.1277C15.8614 15.642 15.3841 16.118 14.8297 16.5067C14.6185 16.6558 14.4147 16.8648 14.1989 17.0013C12.8987 17.8239 11.4094 18.2774 9.89655 18.4266C8.57413 18.5868 6.97126 18.1969 5.73278 17.7559C5.58196 17.7023 5.07323 17.447 4.89612 17.3659C4.3782 17.1288 3.85054 16.6696 3.39284 16.3285C3.00025 15.9975 2.50208 15.5859 2.19759 15.1719C2.00845 14.8654 1.69089 14.5442 1.5005 14.2577C0.667494 13.0043 0.286541 11.6087 0.0478472 10.1412C-0.0210688 9.71757 -0.0147602 8.66167 0.0617437 8.21884C0.322183 6.71128 0.744037 5.16251 1.7039 3.9405C2.28941 3.20399 2.77587 2.63415 3.50802 2.06495C4.06866 1.62907 4.47778 1.25149 5.14187 0.982987C5.81468 0.678053 6.47956 0.392989 7.21833 0.26885C7.66421 0.193924 8.15944 0.0764456 8.59355 0.022637ZM9.3362 17.616C13.9618 17.559 17.6673 13.7668 17.6175 9.14116C17.5678 4.51554 13.7814 0.804012 9.15571 0.846545C4.51976 0.889174 0.798191 4.68575 0.848086 9.32165C0.89798 13.9575 4.7004 17.6732 9.3362 17.616Z" fill="#90A1B9"/>
<path d="M14.0319 3.66827C14.1606 3.64489 14.3066 3.71112 14.3698 3.82208C14.5819 4.19433 13.9769 4.6637 13.7579 4.9248C13.2894 5.48355 12.7628 5.9937 12.2735 6.53401C12.144 6.6771 12.0288 6.82956 11.901 6.97376C11.7174 7.15987 11.5329 7.32784 11.3529 7.51909C11.0433 7.84821 10.6935 8.22806 10.4372 8.59634C10.348 8.72448 10.4545 9.14028 10.4553 9.34048C10.4568 9.71112 10.2112 9.74233 10.2096 10.065C10.2143 10.184 10.4556 10.5533 10.5196 10.6776C10.6358 10.9391 10.8286 11.1897 10.9461 11.4439C11.1445 11.8732 11.3966 12.2654 11.5921 12.6944C11.6089 12.7314 11.6366 12.8718 11.6116 12.9085C11.5473 13.0031 11.4733 13.1488 11.3699 13.2052C11.2956 13.2386 11.2367 13.2293 11.1701 13.2058C10.9153 13.1159 10.6857 12.7348 10.5762 12.5006L9.7921 11.1126C9.66654 10.89 9.57165 10.6798 9.42859 10.4658C9.12165 10.453 8.97484 10.4494 8.70937 10.3091C7.52616 9.6846 8.00775 7.90825 9.36882 8.04003C9.59157 8.06159 9.6879 8.08567 9.85693 7.92821C10.2266 7.57974 10.5825 7.2169 10.9238 6.84058C11.0875 6.65786 11.238 6.46763 11.4015 6.28597C11.6814 5.97493 11.9986 5.68759 12.2666 5.36567C12.6164 4.94679 12.9872 4.5529 13.3753 4.1696C13.6403 3.90786 13.6655 3.77796 14.0319 3.66827Z" fill="#90A1B9"/>
</svg>
