<svg width="17" height="16" viewBox="0 0 17 16" fill="none" xmlns="http://www.w3.org/2000/svg">
<path d="M8.30703 0.000512085C8.84301 -0.0262457 9.17629 1.00282 9.38088 1.39903C9.87115 2.34842 10.3008 3.34352 10.8186 4.27704C10.8821 4.39159 10.9123 4.46735 11.0044 4.56399C11.3362 4.68094 11.4626 4.66307 11.789 4.71088L12.9837 4.8937C13.349 4.95036 13.7119 5.07139 14.083 5.10666C14.1931 5.11713 14.3099 5.1283 14.4191 5.14446L15.747 5.3376C15.9758 5.36879 16.3604 5.47448 16.499 5.66942C16.8774 6.20141 16.3444 6.45977 16.0568 6.79428C15.3167 7.6553 14.4418 8.35889 13.691 9.20444C13.5512 9.36182 12.8502 9.94098 12.9343 10.1524C13.1332 10.5653 12.9963 11.0845 13.1014 11.4899C13.2245 11.9655 13.2913 12.3442 13.3033 12.8396C13.3048 12.9044 13.4169 12.9992 13.43 13.1412C13.4578 13.5532 13.4478 13.9554 13.5591 14.3545C13.6877 14.8156 13.7998 15.4249 13.3389 15.7311C13.2305 15.8031 13.0702 15.8023 12.9585 15.7591C11.7247 15.2814 10.5908 14.5319 9.39939 13.9555C9.10519 13.8134 8.55531 13.4787 8.26826 13.4323C8.04291 13.4801 7.49117 13.8107 7.2643 13.9292L5.21381 15.006C5.09092 15.0709 4.95256 15.1039 4.83353 15.1648C4.4373 15.3676 4.02431 15.6414 3.60277 15.7799C3.36064 15.8594 2.97969 15.57 2.86287 15.3595C2.82584 14.818 2.97773 14.4693 3.05988 13.9327L3.51709 10.8864C3.55101 10.6459 3.66449 10.2425 3.62344 10.0085C3.5917 9.82764 2.88314 9.22963 2.715 9.06516C2.46775 8.82334 2.24404 8.5562 1.99971 8.31055C1.64765 7.95662 0.11128 6.56817 0.0241389 6.22827C-0.021033 6.05205 -0.00500362 5.80592 0.090889 5.64809C0.19627 5.47465 0.504354 5.41073 0.689276 5.36639C1.01426 5.2885 1.36959 5.29725 1.70213 5.24752C1.89252 5.21905 2.07699 5.16356 2.26721 5.1354C2.49056 5.10231 2.71767 5.09608 2.93994 5.05459C3.19064 5.00778 3.43656 4.93264 3.68834 4.89213C3.87707 4.86178 4.0693 4.8593 4.25801 4.82678C4.44514 4.79454 4.62765 4.73291 4.815 4.70428C4.97646 4.67959 5.14201 4.68573 5.30142 4.64651C5.4248 4.61618 5.55037 4.56231 5.62875 4.45772C5.74217 4.30631 5.81385 4.0836 5.89369 3.91143L6.33217 2.98077C6.56277 2.48586 6.91849 1.96823 7.14812 1.46739C7.31433 1.10487 7.44512 0.750727 7.65879 0.404516C7.81683 0.148461 8.02535 0.0694965 8.30703 0.000512085Z" fill="#F0B100"/>
</svg>
