<svg width="16" height="16" viewBox="0 0 16 16" fill="none" xmlns="http://www.w3.org/2000/svg">
<path d="M0.0924385 0.113301C0.218396 0.0711913 0.358513 0.0213084 0.490583 0.0190428C1.0548 0.00939435 1.62797 0.0148829 2.19217 0.0150782L5.53013 0.0154492L14.562 0C14.6322 0.000273438 14.6797 0.0216797 14.7417 0.0529492C14.7782 0.0713672 14.8143 0.0904883 14.8501 0.110293C15.0602 0.645723 15.1355 1.46838 15.1006 2.04041C14.9776 2.1915 14.856 2.36379 14.7258 2.50533C14.5486 2.69799 14.3528 2.88074 14.1686 3.06773L12.7121 4.52197C12.4382 4.7942 12.22 5.04617 11.9589 5.31717C11.699 5.58688 11.3693 5.86029 11.0952 6.13982C10.7875 6.45359 10.4903 6.77715 10.1864 7.09281C9.99892 7.2876 9.3033 7.84453 9.20468 8.07377C9.0747 8.54951 9.11115 9.30045 9.11091 9.81432L9.11201 13.8038C9.11259 14.3373 9.10627 14.9393 9.15004 15.4659L9.074 15.6656C8.77002 15.9096 8.61797 15.8246 8.2899 15.6343C7.88687 15.4006 7.5049 15.1027 7.12552 14.8303C6.70502 14.5284 6.21943 14.3148 5.86771 13.9331C5.83728 13.7914 5.83457 13.6629 5.82718 13.5185C5.83968 13.2998 5.82918 12.9414 5.82939 12.7115L5.83045 11.1095L5.8298 9.48943C5.8292 9.11918 5.86439 8.31381 5.71158 8.01299C5.41338 7.60375 4.99345 7.30812 4.67152 6.96652C4.34789 6.62312 4.05925 6.2852 3.72131 5.9383L2.04334 4.2151L0.840427 2.99217C0.693317 2.84078 0.161345 2.34709 0.123259 2.19904C0.0134149 1.77199 -0.0734208 0.482969 0.0924385 0.113301ZM0.871774 0.853066C0.871481 1.02811 0.852126 1.66715 0.916169 1.79084C1.15949 2.26078 1.75347 2.61934 2.08711 3.01346C2.51738 3.52174 2.92908 3.95557 3.44103 4.3857C3.65537 4.56578 3.8756 4.89412 4.07148 5.10092C4.30429 5.34867 4.57931 5.62285 4.82109 5.86885L5.94306 7.01805C6.15517 7.23557 6.47279 7.5257 6.6334 7.77475C6.69918 7.87676 6.69332 8.3466 6.69365 8.48715L6.6939 11.8134C6.69388 12.2646 6.71947 13.0769 6.69029 13.5063C6.81107 13.6228 7.28205 13.9311 7.45314 14.0395C7.71793 14.2071 7.98687 14.4096 8.24293 14.5753C8.29904 14.2443 8.26316 13.2715 8.26293 12.871L8.26277 9.15764C8.26468 8.74342 8.23822 8.12189 8.36818 7.73522C8.39316 7.6609 8.51552 7.53252 8.57744 7.47131L12.3801 3.68154L13.5446 2.51062C13.6926 2.36021 13.9568 2.06475 14.0973 1.94332C14.1666 1.73729 14.2443 0.993086 14.0662 0.864883C13.67 0.801172 12.7769 0.824082 12.3302 0.823301H2.37666C2.04021 0.824023 1.66799 0.81709 1.3364 0.837285C1.17244 0.852988 1.03701 0.85293 0.871774 0.853066Z" fill="#90A1B9"/>
<path d="M9.20468 8.07377C9.26922 8.78066 9.25459 9.38598 9.25461 10.0966L9.25427 12.7049L9.26013 14.3706C9.26132 14.6595 9.26613 14.9665 9.25023 15.2548C9.24617 15.3286 9.1914 15.4038 9.15004 15.4659C9.10627 14.9393 9.11259 14.3373 9.11201 13.8038L9.11091 9.81432C9.11115 9.30045 9.0747 8.54951 9.20468 8.07377Z" fill="#FEFEFE" fill-opacity="0.258824"/>
<path d="M5.71158 8.01299C5.86439 8.31381 5.8292 9.11918 5.8298 9.48943L5.83045 11.1095L5.82939 12.7115C5.82918 12.9414 5.83968 13.2998 5.82718 13.5185C5.78576 13.4744 5.80093 13.1773 5.80127 13.0939C5.77203 13.1441 5.82547 13.3238 5.78015 13.4037L5.74609 13.3986C5.73613 13.3853 5.72418 13.3693 5.71023 13.3506C5.7417 11.8884 5.66257 9.37885 5.71158 8.01299Z" fill="#90A1B9"/>
</svg>
