<svg width="19" height="19" viewBox="0 0 19 19" fill="none" xmlns="http://www.w3.org/2000/svg">
<path d="M8.80277 0.0103963C13.9022 -0.229539 18.2293 3.71279 18.4639 8.81248C18.6984 13.9122 14.7516 18.2351 9.65164 18.4643C4.55928 18.6932 0.244169 14.7535 0.00993679 9.66134C-0.224294 4.56921 3.7109 0.249976 8.80277 0.0103963ZM3.18732 8.84208L4.41092 8.84683C4.42291 8.55718 4.4217 8.14113 4.45275 7.86705C4.51959 7.27689 4.59672 6.66748 4.67189 6.07873C4.71605 5.73285 4.86178 5.46472 4.85892 5.05121C4.31898 4.92166 3.88498 4.74228 3.36531 4.55654C3.16783 4.48595 2.6775 4.23646 2.48877 4.22906C1.85844 5.1857 1.31178 6.03113 1.05881 7.18164C0.987847 7.50443 1.02057 7.77103 0.893571 8.09525C0.856718 8.18933 0.816652 8.69005 0.829304 8.79179L0.852505 8.82617C1.07039 8.84986 1.47043 8.84175 1.70293 8.84206L3.18732 8.84208ZM10.4334 8.84212L12.1088 8.84109C12.4664 8.84097 12.8563 8.83316 13.2105 8.85322C13.1655 8.20324 13.2073 7.55584 13.0482 6.91291C13.0033 6.73134 13.0151 6.44017 12.9657 6.28001C12.8764 5.99039 12.8516 5.65499 12.783 5.37753C12.6572 5.36845 12.5441 5.35554 12.4188 5.37527C11.7232 5.55041 10.3379 5.64238 9.62562 5.64425C9.63098 6.36361 9.63258 7.08298 9.63043 7.80236C9.63049 8.01285 9.64611 8.66171 9.62445 8.84632L10.4334 8.84212ZM12.2159 4.55382C12.3376 4.52257 12.3797 4.50419 12.4822 4.43029C12.4149 4.0541 12.0378 3.27722 11.8644 2.90355C11.8177 2.80273 11.5601 2.47978 11.4845 2.36865C11.1932 1.94037 10.8755 1.52384 10.4515 1.2165C10.2089 1.04066 9.92553 0.987416 9.6559 0.863613C9.62312 1.10729 9.62937 1.53373 9.62898 1.78929L9.62834 4.19177C9.62789 4.36824 9.61898 4.64632 9.63955 4.8105C10.1572 4.7856 10.6514 4.82945 11.1647 4.70603C11.5095 4.62314 11.8624 4.6233 12.2159 4.55382ZM6.34484 4.5633C6.78119 4.62378 7.22295 4.67228 7.65205 4.76125C7.7925 4.79037 8.73541 4.83197 8.8201 4.78302C8.85211 4.60005 8.84053 4.2655 8.83969 4.06683L8.83678 2.97263L8.83564 1.66615C8.83543 1.48048 8.84498 1.08348 8.81637 0.917588L8.79045 0.882422L8.75756 0.88172C8.4765 1.02388 8.21898 1.08454 7.95254 1.26847C7.64768 1.46914 7.44437 1.73627 7.23148 2.02875C7.02744 2.30906 6.74041 2.62127 6.58615 2.93429C6.39984 3.31238 6.2152 3.76835 6.05 4.16232C6.01352 4.24931 5.99061 4.37455 6.03049 4.46209C6.1091 4.53521 6.24076 4.54927 6.34484 4.5633ZM11.2857 16.4163C11.4953 16.0652 11.7062 15.8208 11.9215 15.4834C11.9977 15.3641 12.0788 15.0868 12.1358 14.9458C12.2472 14.6704 12.4513 14.3514 12.4564 14.0495C12.33 13.8449 10.717 13.7516 10.3906 13.6998C10.1888 13.6678 9.8693 13.722 9.6373 13.659C9.60174 13.9496 9.61943 17.4995 9.66683 17.5743C9.66902 17.5778 9.67211 17.5805 9.67475 17.5837C10.1872 17.5081 11.0552 16.8771 11.2857 16.4163ZM7.39012 16.6637C7.59707 16.8995 7.8608 17.1651 8.13699 17.3144C8.28621 17.395 8.61605 17.5871 8.78447 17.5626C8.82855 17.5223 8.83832 17.4641 8.83889 17.4067C8.84264 17.0279 8.83685 16.6463 8.8367 16.2674C8.83439 15.3985 8.8366 14.5296 8.84332 13.6607C8.67305 13.6768 8.52059 13.6783 8.35027 13.6805C7.98937 13.6964 6.2943 13.8563 6.02072 14.0192C5.94783 14.1723 6.26807 14.7947 6.33992 14.9776C6.36812 15.0493 6.49367 15.4015 6.52602 15.4461C6.78369 15.8012 7.10625 16.3463 7.39012 16.6637ZM6.62932 1.25763C5.70732 1.35087 3.89557 2.64742 3.24443 3.34212C3.19293 3.39709 3.13947 3.48242 3.14879 3.56177C3.29734 3.64841 3.48402 3.69824 3.65752 3.79107C3.96961 3.92923 4.77514 4.18115 5.10666 4.25736C5.28803 4.06625 5.26234 3.97888 5.3442 3.74945C5.54781 3.17871 5.78023 2.67503 6.08883 2.1538C6.19721 1.97076 6.61775 1.48375 6.65422 1.30773C6.64523 1.27859 6.64896 1.27121 6.62932 1.25763ZM15.3465 3.55947C15.0057 2.79328 12.6068 1.32505 11.7771 1.23234C11.7791 1.34789 11.8664 1.40878 11.932 1.50189C12.3974 2.16369 12.7899 2.83142 13.0593 3.59837C13.0971 3.70603 13.2542 4.19826 13.2969 4.22177C13.4858 4.32586 14.3616 3.9458 14.594 3.88593C14.6998 3.85869 14.7895 3.79714 14.8688 3.77099C15.0682 3.66707 15.149 3.64314 15.3465 3.55947ZM13.8386 6.46246C13.8519 6.74179 13.8874 7.01964 13.9445 7.29341C13.9669 7.39558 14.0355 7.61232 14.0439 7.68845C14.0265 7.78492 14.052 8.70623 14.0582 8.84695C15.2513 8.82773 16.4578 8.84599 17.656 8.83185C17.622 8.654 17.6202 8.08386 17.5907 8.02437C17.4431 7.72722 17.4726 7.35816 17.378 7.08626C17.2453 6.70501 17.1037 6.10726 16.9182 5.75703C16.661 5.27154 16.2934 4.61666 15.9429 4.20783C15.8117 4.2766 15.6902 4.30183 15.5631 4.36304C15.1152 4.57878 14.6463 4.73058 14.1816 4.90753C13.9906 4.98029 13.7952 5.00646 13.5958 5.09462C13.6138 5.22103 13.6562 5.52357 13.6864 5.63427C13.7894 6.01207 13.8363 6.06947 13.8386 6.46246ZM3.09492 14.893C3.49424 15.4524 4.026 15.851 4.5818 16.2444C4.81049 16.4062 5.08752 16.5275 5.32924 16.6735C5.50769 16.7836 6.5131 17.3421 6.66123 17.1668C6.64258 17.0418 5.68521 15.7677 5.63223 15.4283C5.63512 15.4468 5.15543 14.2308 5.17932 14.2637C5.10871 14.2247 5.07547 14.2374 4.98676 14.2477C4.80268 14.2932 4.60377 14.3397 4.42392 14.3973C3.98504 14.5377 3.5268 14.753 3.09492 14.893ZM11.7215 17.2334C12.0797 17.2028 12.4624 17.0442 12.7763 16.875C12.9343 16.7897 13.0343 16.7211 13.2032 16.6568C13.8746 16.2601 14.9858 15.6159 15.3546 14.8986C14.7777 14.7143 13.919 14.2509 13.2881 14.2346C13.2024 14.4225 13.2002 14.5778 13.1297 14.7545C12.7571 15.6892 12.3184 16.427 11.7215 17.2334ZM5.7692 5.35962C5.70873 5.3856 5.70309 5.3757 5.68195 5.43996C5.62176 5.62447 5.62387 5.8238 5.58648 6.013C5.5343 6.27716 5.46006 6.53589 5.44307 6.80576C5.4318 6.9847 5.3977 7.15796 5.36133 7.33388C5.25785 7.83435 5.25592 8.34664 5.24934 8.85537C5.57418 8.82937 6.02047 8.8415 6.35285 8.84164L8.28383 8.8415L8.84189 8.84291C8.83467 7.77517 8.83418 6.7074 8.84047 5.63966C8.28533 5.63044 7.70607 5.58601 7.15316 5.53103C6.75773 5.49171 6.14451 5.35701 5.7692 5.35962ZM9.62588 9.63093L9.63049 11.7899C9.63082 12.0516 9.64846 12.5938 9.62918 12.8319C10.1358 12.8337 10.5751 12.8715 11.0755 12.9521C11.3637 12.9804 11.6531 12.9999 11.9411 13.0292C12.177 13.0532 12.4198 13.1184 12.6545 13.1214C12.7824 13.123 12.8345 12.8467 12.8512 12.7586C12.8575 12.7122 12.862 12.6757 12.866 12.6289C12.8825 12.4319 12.9586 12.249 12.9905 12.0487C13.0992 11.4032 13.1677 10.7517 13.1956 10.0977C13.2005 9.97673 13.2171 9.7306 13.2094 9.6247C12.8208 9.64779 12.2916 9.63265 11.8924 9.63191L9.62588 9.63093ZM5.27881 9.62953C5.18691 9.79544 5.3176 11.1277 5.3891 11.3512C5.46381 11.5848 5.44209 11.8138 5.47478 12.0562C5.52477 12.3711 5.62861 12.6849 5.66721 13.0058C5.67428 13.0603 5.69477 13.0866 5.73279 13.121C5.90935 13.1816 6.26605 13.0391 6.45961 13.0359C7.13976 13.0245 7.85092 12.8402 8.52232 12.8335L8.84228 12.8306C8.83437 11.7637 8.83414 10.6968 8.84158 9.62984L6.33359 9.63195C6.16603 9.63214 5.40953 9.64796 5.27881 9.62953ZM14.2696 9.63671C14.1984 9.63976 14.1225 9.63451 14.067 9.6763C14.01 9.78933 14.062 10.6503 14.0337 10.8307C13.9916 11.099 13.9192 11.3397 13.8804 11.6128C13.836 11.9257 13.8418 12.2419 13.8001 12.5388C13.7624 12.8065 13.5531 13.0795 13.6373 13.3915C13.7208 13.4642 13.9531 13.5023 14.0652 13.5368C14.7174 13.7372 15.3107 13.9849 15.9268 14.2739C16.0598 14.1354 16.1701 13.9898 16.2709 13.8259C16.2957 13.7855 16.3426 13.6732 16.3583 13.6504C16.5328 13.3758 16.764 13.0554 16.8883 12.7554C17.0284 12.4173 17.1963 11.9788 17.3051 11.6301C17.5011 10.9864 17.6116 10.3198 17.6337 9.64738C17.0831 9.62203 16.4964 9.62927 15.9424 9.63048C15.3925 9.63166 14.818 9.62197 14.2696 9.63671ZM0.906398 9.63917L0.848173 9.65644C0.813806 9.72044 0.859179 10.3385 0.884279 10.4132C1.0047 10.7714 1.00589 11.1163 1.11252 11.473C1.30484 12.1164 1.46963 12.6459 1.83695 13.2149C2.06781 13.5725 2.22592 13.9359 2.52066 14.2719C2.63092 14.2303 2.75207 14.1862 2.85779 14.135C3.29334 13.924 3.75088 13.7685 4.2025 13.5943L4.21826 13.5884C4.34113 13.5437 4.79242 13.4661 4.82338 13.3635C4.90082 13.1069 4.70189 12.6166 4.65971 12.3575C4.60717 12.0346 4.60178 11.6897 4.55658 11.3747C4.47521 10.8077 4.3765 10.2085 4.42773 9.63365C3.26721 9.62845 2.06449 9.61664 0.906398 9.63917Z" fill="#FEFDFE"/>
<path d="M5.27881 9.62953C5.40953 9.64796 6.16603 9.63214 6.33359 9.63195L8.84158 9.62984C8.83414 10.6968 8.83437 11.7637 8.84228 12.8306L8.52232 12.8335C7.85092 12.8402 7.13976 13.0245 6.45961 13.0359C6.26605 13.0391 5.90935 13.1816 5.73279 13.121C5.69477 13.0866 5.67428 13.0603 5.66721 13.0058C5.62861 12.6849 5.52477 12.3711 5.47478 12.0562C5.44209 11.8138 5.46381 11.5848 5.3891 11.3512C5.3176 11.1277 5.18691 9.79544 5.27881 9.62953Z" fill="#FEFDFE" fill-opacity="0.01"/>
<path d="M13.8386 6.46246C13.9021 6.46228 13.9887 6.45341 14.0368 6.49013C14.0591 6.57593 14.069 7.60996 14.0439 7.68845C14.0355 7.61232 13.9669 7.39558 13.9445 7.29341C13.8874 7.01964 13.8519 6.74179 13.8386 6.46246Z" fill="#FEFDFE" fill-opacity="0.0117647"/>
</svg>
