<svg width="17" height="17" viewBox="0 0 17 17" fill="none" xmlns="http://www.w3.org/2000/svg">
<path d="M16.5119 0.0156133L16.8448 0C16.806 0.494584 16.8319 1.40966 16.8317 1.92376L16.8354 16.8335L0.307272 16.8322L0.0205942 16.8333C-0.00580231 16.4572 0.00194379 16.0483 0.0019184 15.6693L0.00125828 1.27195C0.001145 0.851146 -0.00714209 0.434701 0.0203501 0.0147519C0.938932 0.0426718 1.97712 0.020125 2.90385 0.0200567L13.6785 0.0203203C14.5936 0.0204121 15.6051 0.0438164 16.5119 0.0156133ZM3.2177 16.0351C4.01657 16.0098 4.97501 16.0359 5.78915 16.036L11.0136 16.0356C11.7999 16.0356 12.8078 16.0667 13.5685 16.0289L13.6071 16.0144C13.586 15.493 13.5959 14.9328 13.5958 14.4076L13.5954 9.85238C13.5954 9.54624 13.5809 9.10683 13.602 8.81445L3.22876 8.81507C3.2578 9.34251 3.23907 10.0118 3.2384 10.5472L3.23756 13.5131L3.23928 15.1245C3.23977 15.362 3.25462 15.8288 3.2177 16.0351ZM3.22423 0.806557C3.26022 1.14992 3.23862 1.92542 3.23846 2.30306L3.23741 5.19937L3.23932 7.08888C3.2396 7.27652 3.25274 7.87515 3.21796 8.02927L13.6197 8.02683C13.5783 7.83974 13.5941 7.16902 13.5946 6.93673L13.5965 4.8782L13.5951 2.14445C13.595 1.85056 13.5756 1.06779 13.6054 0.804291C12.9443 0.834467 12.1273 0.812982 11.4492 0.812904L4.63407 0.812689C4.25549 0.812826 3.56895 0.835795 3.22423 0.806557ZM0.795651 10.0202C1.24276 10.0033 1.95756 10.0522 2.35544 10.0103L2.39631 10.0016C2.431 9.7782 2.39874 9.07427 2.40182 8.81439L0.806862 8.81519C0.821276 9.06449 0.834967 9.78849 0.795651 10.0202ZM0.795651 6.03585C1.24253 6.01898 1.95784 6.06777 2.35544 6.02589L2.39635 6.01718C2.43102 5.79349 2.39874 5.09023 2.40184 4.83007L0.806803 4.83081C0.821178 5.08019 0.834967 5.80413 0.795651 6.03585ZM14.4381 10.8088C14.4379 11.0445 14.4585 11.8135 14.435 12.015C14.9534 12.0116 15.5291 12.0244 16.0407 12.0104C16.0053 11.8485 16.007 10.9921 16.0272 10.8042C15.6097 10.8243 15.1897 10.8105 14.7718 10.8162C14.6606 10.8177 14.5489 10.8206 14.4381 10.8088ZM14.4352 8.03068C14.9574 8.02736 15.5242 8.0389 16.0407 8.02638C16.0046 7.86081 16.0074 7.01064 16.0273 6.81976C15.6098 6.83992 15.1897 6.82613 14.7718 6.83179C14.6606 6.83329 14.5489 6.8362 14.4381 6.82445C14.4379 7.06294 14.4587 7.82589 14.4352 8.03068ZM14.4384 0.80851C14.4379 1.0515 14.4588 1.80779 14.435 2.01497C14.9531 2.01163 15.5292 2.02443 16.0405 2.01038C16.0049 1.84585 16.0069 0.993061 16.0271 0.80435C15.6098 0.82435 15.19 0.810619 14.7722 0.816166C14.661 0.817631 14.5492 0.820482 14.4384 0.80851ZM16.0235 8.81447L14.4365 8.81544C14.4383 9.13425 14.4602 9.72685 14.4359 10.0242C14.8663 9.98898 15.5469 10.0292 16.0091 10.0155C16.016 10.0059 16.023 9.99636 16.0299 9.98681C16.0228 9.66509 16.0037 9.11792 16.0235 8.81447ZM14.4363 14.8312C14.4382 15.1477 14.4606 15.7448 14.4364 16.0393C14.8748 16.0003 15.517 16.0527 15.9905 16.0289L16.0277 16.0157C16.0407 15.6384 16 15.2444 16.0235 14.8303L14.4363 14.8312ZM0.796198 12.0135L2.40094 12.0111C2.39702 11.6071 2.39743 11.203 2.40221 10.799C2.13342 10.8211 1.8087 10.8144 1.53542 10.8155C1.31844 10.8164 1.01102 10.8252 0.802213 10.8064C0.821413 10.996 0.835885 11.835 0.796198 12.0135ZM0.795592 14.0048C1.30008 13.9885 1.88991 14.0302 2.37587 13.9964C2.3837 13.9879 2.39153 13.9793 2.39938 13.9708C2.40575 13.5906 2.39567 13.2103 2.40225 12.8302C2.13712 12.8523 1.81372 12.8459 1.54391 12.8467C1.32442 12.8474 1.01419 12.8566 0.802428 12.8376C0.822057 13.0347 0.835397 13.8202 0.795592 14.0048ZM16.0366 4.00445C16.0142 3.79175 16.0033 3.05296 16.0273 2.83531C15.6098 2.85581 15.1897 2.84169 14.7718 2.84742C14.6606 2.84894 14.5488 2.85193 14.4381 2.8398C14.4382 3.12537 14.4577 3.74603 14.436 4.00865C14.6874 3.98876 14.9954 4.00279 15.2531 4.00412C15.511 4.00546 15.7816 3.99794 16.0366 4.00445ZM2.37587 3.99642C2.3837 3.98787 2.39155 3.97931 2.39938 3.97076C2.40569 3.59058 2.39571 3.21035 2.40227 2.83017C2.13362 2.85261 1.80774 2.84568 1.53444 2.84673C1.31803 2.84757 1.01067 2.85626 0.802409 2.83757C0.822155 3.03535 0.835553 3.82011 0.795534 4.00478C1.29964 3.98849 1.89061 4.03035 2.37587 3.99642ZM16.0273 12.8353C15.6098 12.8558 15.1897 12.8417 14.7718 12.8474C14.6606 12.8489 14.5488 12.8519 14.4381 12.8398C14.4382 13.1228 14.4577 13.7491 14.4359 14.0086C14.6877 13.9888 14.9951 14.0028 15.2531 14.0041C15.5111 14.0054 15.7813 13.9981 16.0366 14.0044C16.0142 13.7916 16.0033 13.0531 16.0273 12.8353ZM14.4363 4.83126C14.4382 5.15292 14.4601 5.73892 14.4359 6.03988C14.8651 6.00454 15.5479 6.0448 16.0091 6.03113C16.016 6.02156 16.0229 6.01199 16.0299 6.00244C16.0228 5.68083 16.0035 5.13359 16.0236 4.83027L14.4363 4.83126ZM2.401 8.02695C2.397 7.62285 2.39739 7.2187 2.40217 6.81462C2.13348 6.83677 1.80864 6.83005 1.53542 6.83113C1.31846 6.83199 1.01104 6.84078 0.802252 6.82201C0.821354 7.01163 0.836022 7.85064 0.7961 8.02925L2.401 8.02695ZM0.803561 0.807201C0.821334 0.995814 0.83608 1.83947 0.796198 2.01349L2.40094 2.01107C2.39702 1.60706 2.39739 1.203 2.40206 0.798998C2.13446 0.821146 1.81161 0.814467 1.53952 0.815443C1.31872 0.816244 1.01673 0.824994 0.803561 0.807201ZM0.795748 16.0352C1.25508 16.0183 1.94618 16.0674 2.36422 16.0246L2.39651 16.0161C2.42337 15.7889 2.39622 15.1103 2.4018 14.8301L0.806803 14.8308C0.821022 15.0778 0.835143 15.8064 0.795748 16.0352Z" fill="#90A1B9"/>
</svg>
