<svg width="17" height="17" viewBox="0 0 17 17" fill="none" xmlns="http://www.w3.org/2000/svg">
<path d="M16.5485 9.80588C15.7905 14.05 11.9224 17.0166 7.62692 16.6484C3.33143 16.2801 0.0247455 12.6984 0.000138126 8.38724C-0.0244673 4.07605 3.24112 0.456833 7.53214 0.0395788C11.8232 -0.377669 15.7248 2.54463 16.5312 6.7798C16.7215 7.779 16.7274 8.80457 16.5485 9.80588ZM8.59017 14.9814C8.87815 14.9629 9.26854 14.9592 9.54831 14.8989C10.3331 14.7299 10.9735 14.5063 11.6503 14.091C12.7702 13.4038 14.7625 12.0425 12.615 11.0611C12.5846 11.0474 12.5431 11.0225 12.5116 11.006C11.2904 10.369 9.52382 9.95523 8.14194 10.0291C6.90821 10.108 5.78118 10.302 4.62612 10.7673C4.46782 10.8311 4.31384 10.949 4.15942 11.0229C2.65585 11.6735 2.88237 12.4916 4.01419 13.3957C5.35985 14.4706 6.84663 15.0754 8.59017 14.9814ZM8.37966 7.69906C9.86522 7.67539 11.0496 6.45072 11.0237 4.96521C10.9977 3.47968 9.77124 2.29715 8.28577 2.32541C6.80352 2.35359 5.62413 3.57683 5.65003 5.0591C5.67593 6.54138 6.89735 7.72267 8.37966 7.69906Z" fill="#FDFEFE"/>
</svg>
