<svg width="19" height="19" viewBox="0 0 19 19" fill="none" xmlns="http://www.w3.org/2000/svg">
<path d="M8.5897 0.0220621C8.97044 -0.000783565 9.66347 -0.022473 10.029 0.0478434C10.4409 0.127082 10.9475 0.191505 11.3492 0.276211C12.3096 0.478705 13.3047 0.916898 14.1487 1.41251C14.506 1.6223 14.906 2.04009 15.2582 2.28144C15.7538 2.66005 16.122 3.10259 16.4852 3.60183C16.6468 3.82396 16.8341 4.00474 16.9874 4.24919C17.534 5.11804 17.9282 6.09919 18.1749 7.09468C18.2289 7.31234 18.1715 7.71784 18.3534 7.8538C18.4226 7.90546 18.429 7.98556 18.4307 8.06747C18.4476 8.89749 18.49 9.75749 18.4065 10.5822C18.3716 10.6555 18.2501 10.7672 18.2457 10.8551C18.2198 11.3661 18.1115 11.6908 17.9402 12.1641C17.61 13.0762 17.2381 14.0095 16.5673 14.7324C16.4709 14.8618 16.3921 15.0062 16.2913 15.1321C15.6956 15.8757 14.9458 16.427 14.1954 17.0007C13.8973 17.2286 13.4421 17.4101 13.1007 17.5756C12.0951 18.0631 11.0028 18.3165 9.89304 18.4259C8.6199 18.5801 6.92156 18.1956 5.72925 17.7553C5.62408 17.7165 5.48287 17.6101 5.37509 17.5703C4.94154 17.4106 4.46449 17.1493 4.0965 16.8696C3.69867 16.5673 3.25703 16.2448 2.89087 15.9035C1.58533 14.6785 0.673949 13.0927 0.272845 11.348C0.228123 11.1471 0.214804 10.9357 0.184138 10.7325C0.163966 10.5988 0.0685152 10.3904 0.0542398 10.2573C-0.0138286 9.62251 -0.0192075 8.94228 0.0459234 8.30722C0.0694624 8.07771 0.142322 7.85534 0.179697 7.6356C0.394435 6.37294 0.895849 4.95962 1.6966 3.94614C1.98701 3.57859 2.37837 3.12976 2.69107 2.7711C2.86023 2.57706 3.30119 2.23433 3.51439 2.05605C3.73701 1.86987 4.04632 1.61825 4.28271 1.44874C4.52232 1.27695 4.88324 1.11418 5.1421 0.980574C5.98056 0.54782 6.86334 0.312314 7.79289 0.172544C8.04912 0.134015 8.31902 0.0556207 8.5897 0.0220621ZM9.33269 17.6154C13.9583 17.5584 17.6639 13.7662 17.6141 9.14056C17.5644 4.51489 13.778 0.803338 9.15222 0.845916C4.51627 0.888586 0.794748 4.68517 0.84464 9.32103C0.894533 13.9569 4.69691 17.6725 9.33269 17.6154Z" fill="#FEFEFE"/>
<path d="M6.30203 4.46767C6.77544 4.40396 7.7463 5.16302 8.16736 5.40253L11.4954 7.29521C12.2319 7.70626 12.9844 8.08359 13.6915 8.55042C13.9411 8.71517 14.2716 8.8139 14.4139 9.1104C14.491 9.2711 14.298 9.50161 14.1796 9.5913C13.3985 10.0623 12.6181 10.5386 11.8232 10.9875C11.6532 11.0835 11.4512 11.1471 11.301 11.267C11.2328 11.3472 10.8041 11.5582 10.6799 11.6388C10.5579 11.7181 10.3311 11.8788 10.208 11.9458C9.50703 12.3269 8.83166 12.7484 8.13142 13.1304C7.64152 13.4203 7.17761 13.7562 6.65628 13.9903C6.56644 14.0306 6.49785 14.0301 6.40304 14.0445C6.16148 14.0811 6.03728 13.7552 6.02904 13.5506C6.01171 13.1206 6.01886 12.678 6.01892 12.2437L6.01796 9.66095C6.00753 8.61191 6.00343 7.56282 6.0057 6.51372C6.00419 5.9914 5.97263 5.08919 6.05252 4.60622L6.30203 4.46767ZM6.88367 12.9051C7.60039 12.4292 8.42939 12.1107 9.12166 11.5946C9.1833 11.5487 9.27226 11.5086 9.34015 11.4671C9.77679 11.2007 10.2114 10.9462 10.6695 10.7186C10.7004 10.7033 10.764 10.6765 10.7871 10.6603L10.8029 10.6484C10.9442 10.5435 11.2138 10.3901 11.3752 10.2929L12.4362 9.6562C12.6086 9.55263 12.9851 9.37661 13.0544 9.19462C13.0532 9.15825 13.0604 9.14509 13.0355 9.12722C12.8285 8.97841 12.5555 8.86667 12.3383 8.73353C11.6798 8.33007 11.0136 7.95568 10.3486 7.56528C10.058 7.39464 9.68132 7.233 9.38021 7.04413C9.17525 6.91558 8.97154 6.78009 8.7666 6.65652C8.32853 6.39782 7.88578 6.14718 7.43855 5.9047C7.32646 5.84433 6.98937 5.65611 6.88378 5.62175C6.84586 5.93605 6.85732 6.37849 6.85769 6.70441L6.86046 8.38558C6.86111 9.85628 6.81898 11.4402 6.88367 12.9051Z" fill="#FEFEFE"/>
</svg>
