<svg width="19" height="8" viewBox="0 0 19 8" fill="none" xmlns="http://www.w3.org/2000/svg">
<path d="M1.22104 6.20317C1.40087 6.21104 1.49417 6.29934 1.61148 6.41858L1.61421 6.43078C1.70893 6.85789 1.59711 7.03836 1.29583 7.34101C1.15766 7.4798 0.914504 7.64894 0.817416 7.8073C0.671559 7.86611 0.615678 7.87305 0.464836 7.88796C0.111311 7.92738 0.0415508 7.62501 0 7.35173C0.0437207 7.2222 0.0887736 7.12264 0.179395 7.01C0.388416 6.75021 0.667412 6.40612 0.969182 6.25106C1.01024 6.22994 1.17015 6.20973 1.22104 6.20317Z" fill="#90A1B9"/>
<path d="M14.0773 0.0236021C14.3081 -0.00456394 14.6654 0.000377496 14.903 0.000270074L16.0677 0.00117225C16.6213 0.00203163 17.1874 -0.00518732 17.7412 0.0161467C17.8359 0.019799 17.9526 0.0915138 18.0525 0.116436C18.1711 0.316326 18.1719 1.5454 18.1449 1.83355C18.0899 2.41711 18.2774 3.7974 18.066 4.27083L17.9367 4.4033C17.8333 4.43159 17.7302 4.46113 17.6276 4.4919C17.4777 4.43007 17.401 4.39853 17.2442 4.36149C17.0605 3.86456 17.1303 3.36369 17.1173 2.84422C17.1092 2.51936 17.0821 2.19329 17.0989 1.86887C16.686 2.14776 16.1763 2.7675 15.818 3.1282C15.6822 3.26493 15.5303 3.385 15.3925 3.52278C14.5335 4.39395 13.6668 5.25754 12.7925 6.1135C12.1463 6.74243 11.7232 7.48742 10.7325 7.46766C9.79281 7.44892 9.41731 6.75131 8.81313 6.16272C8.49168 5.84956 8.1707 5.56163 7.85147 5.24905C7.39772 4.77784 6.23034 3.46542 5.68691 3.21356C5.22646 3.3241 5.07536 3.58051 4.74347 3.87685C4.42237 4.16355 4.12678 4.46472 3.8216 4.76825C3.42098 5.16675 3.32795 5.4851 2.71015 5.2726C2.69257 5.24697 2.67573 5.22082 2.65968 5.19418C2.56577 5.03696 2.55907 4.79982 2.59886 4.62386C2.61349 4.55917 2.6887 4.44721 2.7353 4.40289C2.95307 4.19574 3.19019 3.98897 3.3973 3.77063C3.58261 3.57527 3.77358 3.39512 3.962 3.20546C4.09623 3.0703 4.22265 2.89226 4.3667 2.76438C4.53868 2.61167 4.73629 2.42373 4.93434 2.31416C5.33425 2.09296 6.04016 2.11414 6.43496 2.34527C6.85712 2.5938 7.15303 3.02639 7.49444 3.36908C7.70567 3.58111 7.91618 3.78683 8.12683 3.99675C8.3444 4.21355 8.59444 4.41133 8.80271 4.63277C9.3387 5.20271 9.86679 5.78184 10.4712 6.2814C10.5481 6.34486 10.6716 6.37965 10.7675 6.40927C11.3609 6.22403 12.4192 5.00422 12.9026 4.51639L15.1113 2.30666C15.4423 1.97696 15.8158 1.71354 16.1218 1.35428C16.2065 1.25479 16.218 1.18969 16.2579 1.06461C16.163 1.06003 16.0336 1.0755 15.9268 1.0616C15.2631 0.975166 14.3338 1.23652 13.7763 0.811563C13.6801 0.73828 13.7228 0.37674 13.7299 0.270543C13.8805 0.200139 13.9509 0.13154 14.0773 0.0236021Z" fill="#90A1B9"/>
</svg>
