<svg width="15" height="15" viewBox="0 0 15 15" fill="none" xmlns="http://www.w3.org/2000/svg">
<path d="M7.44277 0C7.5983 0.0273242 7.71264 0.192832 7.81324 0.308398C7.85859 0.602226 7.99633 0.798476 8.09789 1.06512C8.29469 1.58186 8.56596 2.06623 8.78264 2.57117C9.03459 3.15828 9.24879 3.76742 9.52855 4.34344C9.56457 4.41779 9.69035 4.67473 9.75635 4.69637C10.3766 4.89973 11.0939 4.84688 11.7394 4.90094C11.8843 4.91744 12.0332 4.98693 12.175 5.00965C12.656 5.08672 13.1416 5.10416 13.6264 5.13949C13.8046 5.15248 13.9985 5.20518 14.176 5.21994C14.4952 5.24648 14.6828 5.24094 14.9766 5.37861C14.9276 5.4834 14.8828 5.611 14.8072 5.69834C14.5967 5.94148 14.3098 6.12113 14.0661 6.32898C13.9045 6.46689 13.7619 6.6268 13.6016 6.76656C13.2832 7.04406 11.117 8.8207 11.0973 9.01531C11.071 9.27334 11.1899 9.52203 11.2403 9.77045C11.2734 9.93348 11.2816 10.102 11.3227 10.2634C11.3553 10.3913 11.4086 10.5165 11.4318 10.6465C11.4677 10.8472 11.448 11.0565 11.4974 11.2561C11.5265 11.3737 11.6406 11.4537 11.6654 11.5737C11.6989 11.7356 11.6844 11.9066 11.7103 12.0699C11.741 12.2631 11.8122 12.4551 11.8567 12.646C11.8932 12.8028 11.904 12.9637 11.9362 13.1207C11.9587 13.2308 12.03 13.3252 12.0441 13.4377C12.0605 13.5679 12.1205 14.168 12.0523 14.2573C11.7322 14.3565 10.5863 13.4906 10.2922 13.2991C10.0573 13.1461 9.78514 13.0004 9.54564 12.8546C9.08783 12.5761 8.65106 12.2631 8.17264 12.0166C7.95898 11.9053 7.71756 11.7145 7.51148 11.6181C7.32318 11.7052 7.18361 11.7857 7.005 11.8903C6.45572 12.2119 5.9066 12.5343 5.37293 12.8819C5.18619 13.0035 4.96404 13.0887 4.78564 13.2069C4.26533 13.5516 3.76814 13.9489 3.20557 14.224C3.13496 14.2587 2.9899 14.2775 2.90838 14.2905C2.8674 14.1272 2.85828 13.9497 2.88574 13.7836C3.10561 12.4536 3.4958 11.16 3.71596 9.83061C3.76797 9.5165 3.84732 9.29045 3.85666 8.95432C3.68463 8.82604 3.4601 8.60279 3.29602 8.451C3.0323 8.20902 2.76523 7.97072 2.4949 7.73615L0.844746 6.29111C0.625195 6.09869 0.0607422 5.72918 0 5.42201C0.0200977 5.36371 0.0464451 5.33811 0.110762 5.31723C0.303086 5.23365 0.56832 5.28369 0.75418 5.23961C1.38701 5.08949 2.01275 5.12937 2.65303 5.04055C2.89516 5.00695 3.1026 4.91773 3.33418 4.89777C3.95824 4.84393 4.63834 4.90748 5.24268 4.72727C5.38617 4.68424 5.77455 3.43201 5.92295 3.22709C5.95754 3.17932 6.08002 2.7876 6.12123 2.70018C6.29004 2.34193 6.45883 1.9916 6.62928 1.63451C6.83092 1.15129 7.02998 0.61498 7.27662 0.154434C7.31545 0.081914 7.37365 0.0408398 7.44277 0ZM5.57324 5.03182C5.31406 5.21273 4.59227 5.21822 4.25389 5.24863L2.576 5.41107C1.97877 5.46576 1.33158 5.58738 0.723808 5.58504C0.919746 5.80242 1.10877 6.01381 1.32824 6.20902C1.46588 6.33143 1.65377 6.43715 1.77936 6.55939C2.19418 6.96316 2.62979 7.34408 3.06258 7.72834C3.55412 8.14412 3.78147 8.24412 4.21217 8.75152C4.35941 9.60494 3.83894 10.5311 3.83369 11.4021C3.83221 11.6478 3.64979 12.043 3.61104 12.2938C3.57576 12.4844 3.35611 13.4921 3.42504 13.5816C3.70666 13.5929 4.3066 13.0017 4.56475 12.8865C4.8802 12.7459 5.03629 12.6394 5.32785 12.4602L6.33203 11.8507C6.64967 11.6547 6.93783 11.4233 7.25871 11.2357C7.33359 11.1919 7.46754 11.1759 7.55514 11.1717L7.57287 11.1747C7.78289 11.2113 8.10535 11.4855 8.30299 11.6104L9.12414 12.132C9.76932 12.5448 10.4515 12.8829 11.0819 13.3177C11.2018 13.4004 11.3986 13.6474 11.544 13.606C11.6029 13.5049 11.3868 12.4605 11.3439 12.2874C11.2842 12.0471 11.2113 11.8535 11.2049 11.5876C11.0907 11.2358 11.0718 10.9259 11.0032 10.5801L10.8162 9.62533C10.78 9.44475 10.6297 8.94135 10.7604 8.77229C11.0124 8.44606 11.3481 8.19324 11.676 7.94305C12.1432 7.58654 12.6021 7.11967 13.0488 6.73994C13.2998 6.52658 14.0974 5.88279 14.1825 5.62758C14.1122 5.55879 13.4031 5.52844 13.2306 5.51135L10.6568 5.24639C10.325 5.21191 9.86064 5.17863 9.52967 5.12145C9.29064 5.03687 9.24371 4.63658 9.15545 4.45063C8.95689 4.03223 8.76258 3.62654 8.60551 3.19574C8.43715 2.73395 8.19998 2.35229 8.00418 1.90523C7.89145 1.64785 7.76871 1.1585 7.62398 0.948887C7.58131 0.887422 7.51488 0.846601 7.44076 0.836289C7.10607 1.1033 7.12182 1.54635 6.95613 1.88467C6.63105 2.5485 6.29893 3.18646 6.04959 3.88662C5.99057 4.05236 5.8849 4.21914 5.81816 4.38342C5.73262 4.59068 5.65693 4.82059 5.57324 5.03182Z" fill="#FCFAFC"/>
</svg>
