<svg width="20" height="20" viewBox="0 0 20 20" fill="none" xmlns="http://www.w3.org/2000/svg">
<path d="M6.4366 2.19462C6.57369 2.10187 6.73234 1.99912 6.90619 2.03222C7.15812 2.08019 8.03973 2.97632 8.24428 3.19081C8.43053 3.38613 8.59676 3.59671 8.78949 3.78783C9.01426 4.01074 9.26648 4.20412 9.49258 4.42929C9.59502 4.53132 9.74314 4.76785 9.84592 4.83169C9.94383 4.89253 10.0284 4.8865 10.1228 4.82628C10.2582 4.73988 10.3729 4.61511 10.4927 4.50812C10.9702 4.08156 11.4065 3.62984 11.843 3.16267C12.1806 2.80138 12.564 2.48894 12.9094 2.13718C13.1798 1.86183 13.434 1.5699 13.7069 1.29667C13.9148 1.08855 14.1393 0.897631 14.349 0.691744C14.5346 0.509534 14.7163 0.281698 14.9265 0.12951C15.029 0.0552913 15.1889 -0.0196384 15.3187 0.00466822C15.4023 0.0203206 15.4671 0.0911877 15.5109 0.159955C15.5733 0.257987 15.5854 0.371586 15.5581 0.48334C15.5294 0.600537 15.4484 0.691223 15.3712 0.780485C15.1968 0.982094 14.9947 1.16343 14.8067 1.35246L13.6933 2.46306C13.4995 2.65476 13.3087 2.84685 13.1194 3.04298C12.976 3.19156 12.8299 3.37078 12.6822 3.51132L11.5453 4.6104C11.4472 4.70609 11.0647 5.02378 11.1033 5.12902C11.2387 5.20665 12.8342 5.18408 13.0845 5.18429L16.3921 5.18537C16.8982 5.18503 17.4419 5.16511 17.9453 5.2104C18.2477 5.23761 18.6047 5.36796 18.8685 5.51238C19.2088 5.72523 19.5834 6.13826 19.768 6.49603C19.8572 6.66906 19.8256 6.83943 20 6.9929V17.4087C19.8168 17.5665 19.6686 18.1758 19.2622 18.5341C19.1334 18.6465 18.9932 18.7451 18.8439 18.8283C18.6691 18.925 18.3133 19.0443 18.2141 19.1754H1.77628C1.65044 19.0123 0.92543 18.7371 0.643728 18.4368C0.412055 18.19 0.138581 17.5085 0 17.4131V6.9891C0.177831 6.73611 0.197529 6.57855 0.324354 6.34775C0.45417 6.11152 0.940574 5.68171 1.16874 5.52001C1.31185 5.41859 1.85982 5.22933 2.03721 5.21046C2.47854 5.16353 3.04408 5.18464 3.49676 5.18541L6.85766 5.18462C7.43826 5.18441 8.03434 5.18849 8.61572 5.17431C8.69633 5.17234 8.79941 5.1515 8.86744 5.10394C8.92621 4.92759 6.64408 2.95398 6.46715 2.56074C6.43166 2.48189 6.4374 2.27255 6.4366 2.19462ZM17.6454 18.3923C17.9865 18.3497 18.0751 18.3035 18.3712 18.1347C19.4208 17.5364 19.2151 16.373 19.2147 15.3439L19.2147 9.0148C19.2157 8.45845 19.2827 7.623 19.1176 7.11654C18.9048 6.46333 18.3211 6.00537 17.6362 5.97824C17.4156 5.96388 17.1862 5.97195 16.9629 5.97269L15.7808 5.97496L5.67035 5.97468C4.60348 5.97466 3.40783 5.94673 2.35244 5.9831C1.84289 6.08427 1.48712 6.16183 1.14392 6.62382C1.0362 6.76884 0.796988 7.33523 0.792607 7.51015C0.781588 7.94998 0.787414 8.44419 0.787746 8.88757L0.787773 15.4307L0.786295 16.3806C0.78602 16.5514 0.775264 16.8844 0.811498 17.0385C0.871486 17.2934 1.10491 17.6847 1.28178 17.8779C1.47159 18.0853 2.01975 18.368 2.30635 18.3812C2.78971 18.4033 3.28309 18.3866 3.76441 18.3866L17.6454 18.3923Z" fill="#90A1B9"/>
<path d="M5.1157 6.37359C6.10219 6.32955 7.27377 6.35542 8.27385 6.35546L10.4004 6.35869C10.9679 6.36203 11.508 6.32638 12.0444 6.49312C12.2068 6.54359 12.5298 6.5164 12.7061 6.58128C13.0541 6.70937 13.4324 6.8346 13.7464 7.03171C13.8172 7.07546 13.8816 7.12859 13.9453 7.17277C14.7034 7.69869 14.9822 8.69023 15.0651 9.56425C15.082 9.74121 15.1593 9.94529 15.18 10.1262C15.2033 10.3214 15.2007 10.5302 15.2033 10.7287C15.2086 11.0543 15.2116 11.3799 15.2124 11.7055C15.2154 12.2799 15.213 12.8543 15.2051 13.4287C15.1959 13.9344 15.1933 14.3084 15.0578 14.7978C14.9955 15.0227 15.0139 15.4292 14.9352 15.6292C14.7127 16.195 14.4626 16.8307 13.9382 17.1792C13.0767 17.8284 12.2254 17.7856 11.2354 17.9385C11.1863 17.9441 11.1371 17.9484 11.0879 17.9513C10.2938 18.0011 9.2282 17.971 8.40918 17.9708L6.53961 17.9689C5.89436 17.9665 5.26488 17.9644 4.62465 17.8664C4.33676 17.8223 3.95266 17.807 3.67797 17.729C3.20893 17.5848 2.62617 17.3475 2.2708 17.0067C1.78859 16.5363 1.45347 15.7329 1.39037 15.0671C1.34984 14.6396 1.24479 14.1527 1.22792 13.7328C1.17418 12.3945 1.15209 11.0363 1.33102 9.7065C1.42706 8.99271 1.54637 8.22306 2.01104 7.64568C2.45818 7.08777 3.17373 6.7632 3.84207 6.55558C3.96385 6.51775 4.21434 6.55019 4.35182 6.51601C4.62086 6.44912 4.83617 6.38994 5.1157 6.37359ZM2.16598 9.85382L2.16529 9.86513C2.15049 10.0839 2.03986 10.1595 2.0327 10.3955C1.99441 11.6541 1.98104 12.9253 2.04398 14.1831C2.05027 14.3089 2.14518 14.3278 2.16912 14.4449C2.15441 14.524 2.17139 14.692 2.1709 14.7808C2.16752 15.3801 2.41223 15.9582 2.83141 16.3837C3.34023 16.9106 3.98199 16.9343 4.65063 17.0493C5.51424 17.1979 6.39518 17.1623 7.27152 17.1709C8.27195 17.1822 9.27248 17.1808 10.2729 17.1664C10.646 17.1607 11.0372 17.1497 11.4084 17.1221C11.5608 17.1109 11.7789 17.0476 11.9154 17.0336C12.6602 16.9575 13.2396 16.8113 13.7495 16.2194C13.8441 16.1095 13.8144 16.0884 13.8792 15.9768C13.9934 15.7576 14.1663 15.41 14.1974 15.1647C14.2449 14.7902 14.3359 14.3474 14.3762 13.9784C14.4192 13.585 14.4008 13.1384 14.4073 12.7414C14.4191 12.0184 14.3977 11.2937 14.3863 10.5711C14.3705 10.4691 14.388 10.2215 14.3561 10.1328C14.2451 9.8249 14.2649 9.47753 14.1978 9.17802C14.1033 8.75585 13.8558 8.18371 13.5455 7.88255C13.3784 7.72027 13.0264 7.55386 12.8015 7.48734C12.3186 7.34517 11.8725 7.32359 11.3833 7.27597C10.409 7.18115 9.43887 7.19046 8.46039 7.189C7.69455 7.18787 6.9124 7.19501 6.14635 7.20546C5.85564 7.20943 5.4484 7.25302 5.15523 7.27845C4.35711 7.34765 3.30615 7.41347 2.73605 8.0524C2.31221 8.5274 2.13887 9.23066 2.16598 9.85382Z" fill="#90A1B9"/>
<path d="M2.16598 9.85382C2.20633 10.1911 2.15107 10.4772 2.14953 10.8035C2.14508 11.7374 2.14836 12.672 2.15072 13.606C2.15312 13.8943 2.2032 14.1472 2.16912 14.4449C2.14518 14.3278 2.05027 14.3089 2.04398 14.1831C1.98104 12.9253 1.99441 11.6541 2.0327 10.3955C2.03986 10.1595 2.15049 10.0839 2.16529 9.86513L2.16598 9.85382Z" fill="#FEFEFE" fill-opacity="0.0156863"/>
<path d="M17.0474 9.57705C17.3211 9.51757 17.606 9.60459 17.7997 9.80679C17.9935 10.009 18.0683 10.2974 17.9972 10.5683C17.9207 10.8599 17.6877 11.0843 17.3934 11.1498C17.0819 11.2192 16.7588 11.098 16.5697 10.8409C16.3806 10.5838 16.3612 10.2393 16.5203 9.96265C16.6336 9.76542 16.8251 9.62535 17.0474 9.57705Z" fill="#90A1B9"/>
<path d="M17.1802 13.1735C17.4311 13.1614 17.6731 13.2684 17.8331 13.4622C17.993 13.6559 18.0523 13.9137 17.993 14.1579C17.9112 14.4945 17.6213 14.7398 17.2757 14.7646C16.9894 14.7852 16.7142 14.6503 16.5551 14.4115C16.396 14.1726 16.3776 13.8666 16.507 13.6104C16.6364 13.3542 16.8935 13.1873 17.1802 13.1735Z" fill="#90A1B9"/>
</svg>
